<?xml version="1.0" encoding="UTF-8"?>
<!DOCTYPE svg PUBLIC "-//W3C//DTD SVG 1.1//EN" "http://www.w3.org/Graphics/SVG/1.1/DTD/svg11.dtd">
<svg xmlns="http://www.w3.org/2000/svg" version="1.1" width="109px" height="119px" style="shape-rendering:geometricPrecision; text-rendering:geometricPrecision; image-rendering:optimizeQuality; fill-rule:evenodd; clip-rule:evenodd" xmlns:xlink="http://www.w3.org/1999/xlink">
<g><path style="opacity:0.97" fill="#4482b4" d="M 39.5,-0.5 C 47.5,-0.5 55.5,-0.5 63.5,-0.5C 56.0484,7.04421 49.0484,15.0442 42.5,23.5C 37.1667,23.5 31.8333,23.5 26.5,23.5C 26.0899,17.3792 26.5899,11.3792 28,5.5C 31.3077,2.26453 35.1411,0.264531 39.5,-0.5 Z M 36.5,7.5 C 43.345,9.76219 43.845,12.7622 38,16.5C 32.7538,14.2668 32.2538,11.2668 36.5,7.5 Z"/></g>
<g><path style="opacity:0.98" fill="#3a76a7" d="M 63.5,-0.5 C 63.8333,-0.5 64.1667,-0.5 64.5,-0.5C 68.935,0.554946 72.6017,2.88828 75.5,6.5C 61.467,20.538 48.467,35.538 36.5,51.5C 30.9799,52.851 27.1465,56.1844 25,61.5C 24.5006,67.1569 24.3339,72.8236 24.5,78.5C 20.1539,78.6657 15.8206,78.499 11.5,78C 9.50869,77.6264 7.84203,76.793 6.5,75.5C 7.4959,75.5858 8.32924,75.2524 9,74.5C 22.3351,58.334 35.8351,42.334 49.5,26.5C 51.0481,26.1788 51.7148,25.1788 51.5,23.5C 48.5,23.5 45.5,23.5 42.5,23.5C 49.0484,15.0442 56.0484,7.04421 63.5,-0.5 Z"/></g>
<g><path style="opacity:0.981" fill="#356f9f" d="M 75.5,6.5 C 76.2216,6.91753 76.7216,7.5842 77,8.5C 77.4983,11.8168 77.665,15.1501 77.5,18.5C 67.4716,29.5258 57.4716,40.5258 47.5,51.5C 43.8333,51.5 40.1667,51.5 36.5,51.5C 48.467,35.538 61.467,20.538 75.5,6.5 Z"/></g>
<g><path style="opacity:0.978" fill="#306998" d="M 77.5,18.5 C 84.1139,44.8801 74.1139,55.8801 47.5,51.5C 57.4716,40.5258 67.4716,29.5258 77.5,18.5 Z"/></g>
<g><path style="opacity:0.989" fill="#4382b4" d="M 39.5,26.5 C 28.2442,39.9886 16.7442,53.3219 5,66.5C 3.99136,68.0249 3.49136,69.6916 3.5,71.5C 1.57201,68.3783 0.23868,65.0449 -0.5,61.5C -0.5,55.1667 -0.5,48.8333 -0.5,42.5C 0.565946,36.5478 3.56595,31.7145 8.5,28C 18.7544,26.5738 29.0878,26.0738 39.5,26.5 Z"/></g>
<g><path style="opacity:0.994" fill="#3d7aab" d="M 39.5,26.5 C 42.8333,26.5 46.1667,26.5 49.5,26.5C 35.8351,42.334 22.3351,58.334 9,74.5C 8.32924,75.2524 7.4959,75.5858 6.5,75.5C 4.73758,74.7377 3.73758,73.4044 3.5,71.5C 3.49136,69.6916 3.99136,68.0249 5,66.5C 16.7442,53.3219 28.2442,39.9886 39.5,26.5 Z"/></g>
<g><path style="opacity:0.981" fill="#ffe56b" d="M 100.5,32.5 C 100.079,34.9099 98.7458,36.7432 96.5,38C 72.962,54.2638 49.6287,70.7638 26.5,87.5C 26.0828,78.0854 26.5828,68.7521 28,59.5C 29.9605,56.8647 32.4605,55.0314 35.5,54C 46.1667,53.6667 56.8333,53.3333 67.5,53C 72.5252,51.3109 76.3585,48.1442 79,43.5C 80.2889,37.9116 80.7889,32.2449 80.5,26.5C 85.5111,26.3341 90.5111,26.5007 95.5,27C 98.079,28.0757 99.7457,29.909 100.5,32.5 Z"/></g>
<g><path style="opacity:0.988" fill="#ffdf5b" d="M 100.5,32.5 C 102.404,35.5341 103.738,38.8674 104.5,42.5C 86.9489,53.4016 70.2822,65.4016 54.5,78.5C 51.8333,79.1667 51.8333,79.8333 54.5,80.5C 53.5251,82.1927 52.1918,83.6927 50.5,85C 43.5891,89.61 36.9224,94.4433 30.5,99.5C 28.8267,98.657 27.66,97.3237 27,95.5C 26.5026,92.854 26.3359,90.1873 26.5,87.5C 49.6287,70.7638 72.962,54.2638 96.5,38C 98.7458,36.7432 100.079,34.9099 100.5,32.5 Z"/></g>
<g><path style="opacity:0.962" fill="#ffdb50" d="M 104.5,42.5 C 104.833,45.8333 105.167,49.1667 105.5,52.5C 92.3288,59.9237 79.9955,68.5904 68.5,78.5C 63.8333,78.5 59.1667,78.5 54.5,78.5C 70.2822,65.4016 86.9489,53.4016 104.5,42.5 Z"/></g>
<g><path style="opacity:0.976" fill="#ffd641" d="M 105.5,52.5 C 104.812,76.9191 92.4787,85.5858 68.5,78.5C 79.9955,68.5904 92.3288,59.9237 105.5,52.5 Z"/></g>
<g><path style="opacity:0.939" fill="#ffd643" d="M 54.5,80.5 C 62.1667,80.5 69.8333,80.5 77.5,80.5C 77.6659,85.5111 77.4993,90.5111 77,95.5C 75.1083,99.0579 72.2749,101.558 68.5,103C 58.6196,107.092 48.6196,107.425 38.5,104C 35.3156,103.246 32.6489,101.746 30.5,99.5C 36.9224,94.4433 43.5891,89.61 50.5,85C 52.1918,83.6927 53.5251,82.1927 54.5,80.5 Z M 64.5,88.5 C 70.4877,88.664 71.821,91.164 68.5,96C 62.4034,96.1475 61.0701,93.6475 64.5,88.5 Z"/></g>
<g><path style="opacity:0.059" fill="#8f8f8f" d="M 79.5,118.5 C 61.5,118.5 43.5,118.5 25.5,118.5C 28.135,116.672 31.135,115.505 34.5,115C 46.5,113 58.5,113 70.5,115C 73.865,115.505 76.865,116.672 79.5,118.5 Z"/></g>
</svg>
